<svg width="43" height="45" viewBox="0 0 43 45" fill="none" xmlns="http://www.w3.org/2000/svg">
<path d="M7.1422 33.75H10.7133V41.4019L19.8214 33.75H28.5688C30.5382 33.75 32.1398 32.0681 32.1398 30V15C32.1398 12.9319 30.5382 11.25 28.5688 11.25H7.1422C5.17274 11.25 3.57111 12.9319 3.57111 15V30C3.57111 32.0681 5.17274 33.75 7.1422 33.75Z" fill="#0057FF" fill-opacity="0.5"/>
<path d="M35.7109 3.75037H14.2843C12.3149 3.75037 10.7133 5.43224 10.7133 7.50037H32.1398C34.1093 7.50037 35.7109 9.18224 35.7109 11.2504V26.2504C37.6804 26.2504 39.282 24.5685 39.282 22.5004V7.50037C39.282 5.43224 37.6804 3.75037 35.7109 3.75037Z" fill="#0057FF" fill-opacity="0.5"/>
</svg>
