<svg width="58" height="57" viewBox="0 0 58 57" fill="none" xmlns="http://www.w3.org/2000/svg">
<g clip-path="url(#clip0_4143_1802)">
<mask id="mask0_4143_1802" style="mask-type:luminance" maskUnits="userSpaceOnUse" x="0" y="-4" width="61" height="61">
<path d="M61 -4H0V57H61V-4Z" fill="white"/>
</mask>
<g mask="url(#mask0_4143_1802)">
<path d="M30.5 2.70996C43.615 2.70996 54.29 13.385 54.29 26.5C54.29 39.615 43.615 50.29 30.5 50.29C17.385 50.29 6.70996 39.615 6.70996 26.5C6.70996 13.385 17.385 2.70996 30.5 2.70996ZM30.5 5.07371C18.6812 5.07371 9.07371 14.6812 9.07371 26.5C9.07371 38.3187 18.6812 47.9262 30.5 47.9262C42.3187 47.9262 51.9262 38.3187 51.9262 26.5C51.9262 14.6812 42.3187 5.07371 30.5 5.07371Z" fill="white"/>
<path fill-rule="evenodd" clip-rule="evenodd" d="M31.7199 37.1749V39.5387C31.7199 40.2249 31.1861 40.7587 30.4999 40.7587C29.8136 40.7587 29.2799 40.2249 29.2799 39.5387V37.1749H24.5524C23.9424 37.1749 23.4086 36.7174 23.4086 36.1074V35.9549C23.4086 35.3449 23.8661 34.8112 24.4761 34.8112H24.6286H32.9399C34.9224 34.8112 36.5236 33.2099 36.5236 31.2274C36.5236 29.2449 34.9224 27.6437 32.9399 27.6437H28.2124C24.9336 27.6437 22.2649 24.9749 22.2649 21.6962C22.2649 18.4174 24.9336 15.7487 28.2124 15.7487H29.4324V13.3849C29.4324 12.6987 29.9661 12.1649 30.6524 12.1649C31.3386 12.1649 31.8724 12.6987 31.8724 13.3849V15.8249H36.5999C37.2861 15.8249 37.8199 16.3587 37.8199 17.0449C37.8199 17.7312 37.2861 18.2649 36.5999 18.2649H28.1361C26.1536 18.2649 24.5524 19.8662 24.5524 21.8487C24.5524 23.8312 26.1536 25.4324 28.1361 25.4324H32.8636C36.1424 25.4324 38.8111 28.1012 38.8111 31.3799C38.8111 34.6587 36.1424 37.1749 32.8636 37.1749H31.7199Z" fill="white"/>
</g>
</g>
<defs>
<clipPath id="clip0_4143_1802">
<rect width="58" height="57" fill="white"/>
</clipPath>
</defs>
</svg>
