<svg width="52" height="48" viewBox="0 0 52 48" fill="none" xmlns="http://www.w3.org/2000/svg">
<path d="M30.6063 28.0138L32.8773 28.2372V45.5625L26.6043 39.2845V29.2968L28.4262 30.1307L30.6063 28.0138ZM20.6084 28.0138L18.3361 28.2372V45.5625L24.609 39.2845V29.2968L22.7872 30.1307L20.6084 28.0138ZM37.8113 17.1594L38.5462 19.557L36.3401 20.9511L36.1554 23.4421L33.5736 24.0444L32.493 26.3239L29.8462 26.0618L27.9982 27.8512L25.6073 26.7565L23.2164 27.8512L21.3684 26.0559L18.7217 26.318L17.641 24.0386L15.0593 23.4421L14.8746 20.9545L12.6621 19.5558L13.3971 17.1583L11.8373 15.1386L13.4021 13.1211L12.6621 10.7283L14.8696 9.33422L15.0543 6.84656L17.641 6.25012L18.7217 3.97078L21.3684 4.23272L23.2164 2.4375L25.6073 3.53222L27.9982 2.4375L29.8462 4.23272L32.493 3.97078L33.5736 6.25012L36.1554 6.85247L36.3401 9.34003L38.5462 10.7341L37.8113 13.1317L39.3774 15.1386L37.8113 17.1594ZM32.8885 15.1386C32.8885 13.7991 32.4647 12.4896 31.6707 11.3759C30.8766 10.2621 29.7481 9.39402 28.4276 8.88141C27.1072 8.36881 25.6542 8.23468 24.2525 8.49601C22.8507 8.75734 21.5631 9.40237 20.5525 10.3495C19.5419 11.2967 18.8537 12.5035 18.5748 13.8173C18.296 15.131 18.4391 16.4928 18.986 17.7304C19.533 18.9679 20.4592 20.0257 21.6475 20.7698C22.8359 21.514 24.233 21.9113 25.6622 21.9113C27.5779 21.9084 29.4141 21.194 30.7687 19.9245C32.1232 18.655 32.8855 16.9339 32.8885 15.1386ZM25.6622 10.237C24.6279 10.237 23.6168 10.5245 22.7568 11.0631C21.8968 11.6016 21.2265 12.3671 20.8306 13.2627C20.4348 14.1584 20.3312 15.1439 20.533 16.0947C20.7348 17.0454 21.2329 17.9188 21.9643 18.6043C22.6956 19.2898 23.6275 19.7566 24.6419 19.9457C25.6564 20.1348 26.7079 20.0378 27.6635 19.6668C28.6191 19.2959 29.4359 18.6677 30.0105 17.8616C30.5852 17.0556 30.8919 16.108 30.8919 15.1386C30.888 13.8401 30.3356 12.5959 29.3556 11.6781C28.3756 10.7602 27.0477 10.2434 25.6622 10.2406V10.237Z" fill="#FF9900" fill-opacity="0.5"/>
</svg>
