<svg width="44" height="45" viewBox="0 0 44 45" fill="none" xmlns="http://www.w3.org/2000/svg">
<path d="M18.1355 40.0312V29.3437L20.6744 21.8437C20.8256 21.5 21.045 21.2106 21.3328 20.9756C21.6205 20.7406 21.9754 20.6237 22.3973 20.625H35.6362C36.0594 20.625 36.4148 20.7425 36.7026 20.9775C36.9903 21.2125 37.2092 21.5012 37.3591 21.8437L39.8981 29.3437V40.0312C39.8981 40.375 39.7844 40.6644 39.5571 40.8994C39.3298 41.1344 39.0505 41.2512 38.7192 41.25H37.4498C37.1173 41.25 36.838 41.1325 36.6119 40.8975C36.3858 40.6625 36.2722 40.3737 36.271 40.0312V38.4375H21.7626V40.0312C21.7626 40.375 21.6489 40.6644 21.4216 40.8994C21.1943 41.1344 20.915 41.2512 20.5838 41.25H19.3143C18.9818 41.25 18.7025 41.1325 18.4764 40.8975C18.2503 40.6625 18.1367 40.3737 18.1355 40.0312ZM21.7626 27.1875H36.271L35.0015 23.4375H23.032L21.7626 27.1875ZM23.5761 34.6875C24.09 34.6875 24.521 34.5075 24.8692 34.1475C25.2174 33.7875 25.3909 33.3425 25.3897 32.8125C25.3897 32.2812 25.2156 31.8356 24.8674 31.4756C24.5192 31.1156 24.0887 30.9362 23.5761 30.9375C23.0623 30.9375 22.6313 31.1175 22.2831 31.4775C21.9348 31.8375 21.7614 32.2825 21.7626 32.8125C21.7626 33.3437 21.9367 33.7894 22.2849 34.1494C22.6331 34.5094 23.0635 34.6887 23.5761 34.6875ZM34.4574 34.6875C34.9712 34.6875 35.4023 34.5075 35.7505 34.1475C36.0987 33.7875 36.2722 33.3425 36.271 32.8125C36.271 32.2812 36.0969 31.8356 35.7487 31.4756C35.4005 31.1156 34.97 30.9362 34.4574 30.9375C33.9436 30.9375 33.5125 31.1175 33.1643 31.4775C32.8161 31.8375 32.6426 32.2825 32.6439 32.8125C32.6439 33.3437 32.818 33.7894 33.1662 34.1494C33.5144 34.5094 33.9448 34.6887 34.4574 34.6875ZM10.8813 26.25V22.5H14.5084V26.25H10.8813ZM19.949 15V11.25H23.5761V15H19.949ZM10.8813 33.75V30H14.5084V33.75H10.8813ZM10.8813 41.25V37.5H14.5084V41.25H10.8813ZM3.62708 41.25V15H12.6948V3.75H30.8303V16.875H27.2032V7.5H16.3219V18.75H7.25417V41.25H3.62708Z" fill="#2B0606" fill-opacity="0.5"/>
</svg>
