<svg width="38" height="45" viewBox="0 0 38 45" fill="none" xmlns="http://www.w3.org/2000/svg">
<path fill-rule="evenodd" clip-rule="evenodd" d="M14.7118 12.825C13.6853 13.7542 13.2214 14.868 13.2214 15.9075C13.2214 16.9493 13.6853 18.063 14.7118 18.9945C15.7401 19.926 17.2454 20.5695 18.9873 20.5695C19.4813 20.5695 19.9552 20.8066 20.3046 21.2285C20.6539 21.6505 20.8502 22.2228 20.8502 22.8195C20.8502 23.4162 20.6539 23.9885 20.3046 24.4105C19.9552 24.8324 19.4813 25.0695 18.9873 25.0695C16.517 25.0695 14.2088 24.165 12.4762 22.5945C10.7437 21.024 9.49548 18.684 9.49548 15.9098C9.49548 13.1333 10.7437 10.7932 12.4762 9.22275C14.2088 7.6545 16.5188 6.75 18.9873 6.75C22.8119 6.75 26.4279 8.96175 27.8661 12.645C27.9705 12.9124 28.0302 13.202 28.0418 13.4973C28.0535 13.7926 28.0169 14.0877 27.9341 14.3659C27.8514 14.6441 27.724 14.8999 27.5594 15.1186C27.3948 15.3374 27.1961 15.5149 26.9747 15.6409C26.7533 15.7669 26.5135 15.839 26.269 15.8531C26.0245 15.8672 25.7801 15.823 25.5498 15.723C25.3195 15.6231 25.1077 15.4693 24.9266 15.2704C24.7454 15.0716 24.5985 14.8317 24.4942 14.5643C23.8421 12.8835 21.8078 11.25 18.9891 11.25C17.2472 11.25 15.7401 11.8935 14.7118 12.825Z" fill="#219653" fill-opacity="0.5"/>
<path fill-rule="evenodd" clip-rule="evenodd" d="M22.648 32.8118C23.6744 31.8825 24.1365 30.7688 24.1365 29.7293C24.1365 28.6875 23.6744 27.5715 22.6461 26.6422C21.6196 25.7107 20.1125 25.0672 18.3725 25.0672C17.8784 25.0672 17.4045 24.8302 17.0552 24.4082C16.7058 23.9863 16.5095 23.414 16.5095 22.8172C16.5095 22.2205 16.7058 21.6482 17.0552 21.2263C17.4045 20.8043 17.8784 20.5672 18.3725 20.5672C20.8427 20.5672 23.151 21.4718 24.8835 23.0423C26.6161 24.6128 27.8624 26.9527 27.8624 29.727C27.8624 32.5012 26.6161 34.8435 24.8816 36.4118C23.1491 37.9823 20.8427 38.8868 18.3725 38.8868C14.5478 38.8868 10.9299 36.675 9.49361 32.9895C9.28288 32.4498 9.25831 31.831 9.42531 31.2694C9.59231 30.7078 9.9372 30.2493 10.3841 29.9948C10.831 29.7402 11.3433 29.7106 11.8083 29.9123C12.2733 30.114 12.653 30.5305 12.8637 31.0703C13.5195 32.7533 15.5538 34.3867 18.3725 34.3867C20.1143 34.3867 21.6196 33.7433 22.648 32.8118ZM18.6296 2.25C19.1236 2.25 19.5975 2.48705 19.9469 2.90901C20.2962 3.33097 20.4925 3.90326 20.4925 4.5V6.75C20.4925 7.34674 20.2962 7.91903 19.9469 8.34099C19.5975 8.76295 19.1236 9 18.6296 9C18.1355 9 17.6616 8.76295 17.3122 8.34099C16.9629 7.91903 16.7666 7.34674 16.7666 6.75V4.5C16.7666 3.90326 16.9629 3.33097 17.3122 2.90901C17.6616 2.48705 18.1355 2.25 18.6296 2.25Z" fill="#219653" fill-opacity="0.5"/>
<path fill-rule="evenodd" clip-rule="evenodd" d="M18.6296 36C19.1236 36 19.5975 36.2371 19.9469 36.659C20.2962 37.081 20.4925 37.6533 20.4925 38.25V40.5C20.4925 41.0967 20.2962 41.669 19.9469 42.091C19.5975 42.5129 19.1236 42.75 18.6296 42.75C18.1355 42.75 17.6616 42.5129 17.3122 42.091C16.9629 41.669 16.7666 41.0967 16.7666 40.5V38.25C16.7666 37.6533 16.9629 37.081 17.3122 36.659C17.6616 36.2371 18.1355 36 18.6296 36Z" fill="#219653" fill-opacity="0.5"/>
<path d="M2.40882 6.09045C2.06947 5.66609 1.88169 5.09774 1.88593 4.50779C1.89018 3.91785 2.0861 3.35352 2.43151 2.93635C2.77692 2.51919 3.24417 2.28256 3.73263 2.27743C4.2211 2.2723 4.69168 2.49909 5.04304 2.90895L34.8504 38.9089C35.1897 39.3333 35.3775 39.9017 35.3732 40.4916C35.369 41.0815 35.1731 41.6459 34.8277 42.063C34.4823 42.4802 34.015 42.7168 33.5265 42.722C33.0381 42.7271 32.5675 42.5003 32.2161 42.0904L2.40882 6.09045Z" fill="#219653" fill-opacity="0.5"/>
</svg>
