<svg width="43" height="41" viewBox="0 0 43 41" fill="none" xmlns="http://www.w3.org/2000/svg">
<path fill-rule="evenodd" clip-rule="evenodd" d="M6.16712 8.68177C5.49219 9.60085 5.49219 12.3342 5.49219 17.7957V20.4846C5.49219 30.1162 13.0611 34.7919 17.8107 36.7753C19.0981 37.3134 19.7426 37.5834 21.5621 37.5834C23.3834 37.5834 24.0262 37.3134 25.3135 36.7753C30.0631 34.7902 37.632 30.1179 37.632 20.4846V17.7957C37.632 12.3325 37.632 9.60085 36.9571 8.68177C36.2839 7.7644 33.6003 6.8846 28.2311 5.12673L27.208 4.7919C24.4101 3.87452 23.012 3.41669 21.5621 3.41669C20.114 3.41669 18.7142 3.87452 15.9162 4.7919L14.8931 5.12502C9.52395 6.8846 6.84028 7.7644 6.16712 8.68177ZM18.0446 15.3238C17.922 15.1979 17.7741 15.0969 17.6099 15.0269C17.4456 14.9569 17.2683 14.9192 17.0885 14.9162C16.9086 14.9131 16.73 14.9448 16.5633 15.0092C16.3965 15.0737 16.2451 15.1696 16.1179 15.2912C15.9907 15.4129 15.8905 15.5578 15.8231 15.7174C15.7558 15.8769 15.7227 16.0478 15.7259 16.2198C15.7291 16.3919 15.7684 16.5615 15.8416 16.7187C15.9148 16.8759 16.0203 17.0173 16.1519 17.1346L19.6694 20.5L16.1519 23.8654C16.0203 23.9827 15.9148 24.1242 15.8416 24.2814C15.7684 24.4385 15.7291 24.6082 15.7259 24.7802C15.7227 24.9522 15.7558 25.1231 15.8231 25.2827C15.8905 25.4422 15.9907 25.5871 16.1179 25.7088C16.2451 25.8305 16.3965 25.9264 16.5633 25.9908C16.73 26.0553 16.9086 26.0869 17.0885 26.0839C17.2683 26.0808 17.4456 26.0432 17.6099 25.9731C17.7741 25.9031 17.922 25.8022 18.0446 25.6763L21.5621 22.3109L25.0796 25.6763C25.3335 25.9026 25.6693 26.0258 26.0162 26.0199C26.3631 26.0141 26.6941 25.8796 26.9395 25.6449C27.1849 25.4101 27.3254 25.0934 27.3315 24.7615C27.3376 24.4296 27.2089 24.1083 26.9723 23.8654L23.4548 20.5L26.9723 17.1346C27.1039 17.0173 27.2094 16.8759 27.2826 16.7187C27.3558 16.5615 27.3952 16.3919 27.3983 16.2198C27.4015 16.0478 27.3684 15.8769 27.3011 15.7174C27.2337 15.5578 27.1335 15.4129 27.0063 15.2912C26.8791 15.1696 26.7277 15.0737 26.5609 15.0092C26.3942 14.9448 26.2156 14.9131 26.0358 14.9162C25.8559 14.9192 25.6786 14.9569 25.5143 15.0269C25.3501 15.0969 25.2022 15.1979 25.0796 15.3238L21.5621 18.6892L18.0446 15.3238Z" fill="#00B3FF" fill-opacity="0.5"/>
</svg>
