<svg width="39" height="31" viewBox="0 0 39 31" fill="none" xmlns="http://www.w3.org/2000/svg">
<path d="M2.4375 3.1C2.4375 2.27783 2.82271 1.48933 3.50839 0.907969C4.19407 0.326606 5.12405 0 6.09375 0H32.9062C33.8759 0 34.8059 0.326606 35.4916 0.907969C36.1773 1.48933 36.5625 2.27783 36.5625 3.1V17.5667C36.5625 18.3888 36.1773 19.1773 35.4916 19.7587C34.8059 20.3401 33.8759 20.6667 32.9062 20.6667H19.5V10.3333C19.5 9.2371 18.9864 8.18578 18.0721 7.41062C17.1579 6.63547 15.9179 6.2 14.625 6.2H2.4375V3.1ZM19.5 24.8H37.7812C38.1045 24.8 38.4145 24.6911 38.643 24.4973C38.8716 24.3036 39 24.0407 39 23.7667C39 23.4926 38.8716 23.2298 38.643 23.036C38.4145 22.8422 38.1045 22.7333 37.7812 22.7333H19.5V24.8ZM0 11.3667C0 10.5445 0.385211 9.756 1.07089 9.17463C1.75657 8.59327 2.68655 8.26667 3.65625 8.26667H13.4062C14.3759 8.26667 15.3059 8.59327 15.9916 9.17463C16.6773 9.756 17.0625 10.5445 17.0625 11.3667V27.9C17.0625 28.7222 16.6773 29.5107 15.9916 30.092C15.3059 30.6734 14.3759 31 13.4062 31H3.65625C2.68655 31 1.75657 30.6734 1.07089 30.092C0.385211 29.5107 0 28.7222 0 27.9V11.3667ZM7.3125 24.8C6.98927 24.8 6.67927 24.9089 6.45071 25.1027C6.22215 25.2964 6.09375 25.5593 6.09375 25.8333C6.09375 26.1074 6.22215 26.3702 6.45071 26.564C6.67927 26.7578 6.98927 26.8667 7.3125 26.8667H9.75C10.0732 26.8667 10.3832 26.7578 10.6118 26.564C10.8403 26.3702 10.9688 26.1074 10.9688 25.8333C10.9688 25.5593 10.8403 25.2964 10.6118 25.1027C10.3832 24.9089 10.0732 24.8 9.75 24.8H7.3125Z" fill="#3300FF" fill-opacity="0.5"/>
</svg>
