<svg width="59" height="48" viewBox="0 0 59 48" fill="none" xmlns="http://www.w3.org/2000/svg">
<path d="M4.62786 35.2125C4.83989 36.0093 5.65114 36.4875 6.43473 36.2718L26.3841 30.8343C27.1677 30.6187 27.6378 29.7937 27.4258 28.9968L22.8441 11.6062C22.6321 10.8094 21.8208 10.3312 21.0372 10.5469L13.9204 12.4969L16.2066 21.1875L10.5094 22.7344L8.22317 14.0437L1.09708 15.9844C0.313488 16.2 -0.156668 17.025 0.0553629 17.8219L4.62786 35.2125ZM35.4 0C33.7683 0 32.45 1.34062 32.45 3V33.3375L0.543956 42.1875C0.14755 42.3 -0.0829183 42.7125 0.0277066 43.1062L1.18927 47.4468C1.29989 47.8499 1.70552 48.0843 2.09271 47.9718L38.3869 37.9031C38.6081 43.5093 43.1069 47.9999 48.675 47.9999C54.3814 47.9999 59 43.3031 59 37.5V0H35.4ZM48.675 42C46.232 42 44.25 39.9843 44.25 37.5C44.25 35.0156 46.232 33 48.675 33C51.118 33 53.1 35.0156 53.1 37.5C53.1 39.9843 51.118 42 48.675 42Z" fill="black"/>
</svg>
