<svg width="88" height="58" viewBox="0 0 88 58" fill="none" xmlns="http://www.w3.org/2000/svg">
<rect x="1" y="1" width="86" height="47" rx="16" fill="white" stroke="black" stroke-width="2"/>
<path d="M64.69 32.2195L65.5962 30.407C65.7038 30.1921 65.8923 30.0286 66.1204 29.9527C66.3485 29.8767 66.5974 29.8945 66.8123 30.002C67.0273 30.1096 67.1907 30.2982 67.2667 30.5262C67.3426 30.7543 67.3249 31.0032 67.2173 31.2181L66.311 33.0306C66.2578 33.1371 66.1841 33.232 66.0942 33.3099C66.0042 33.3879 65.8998 33.4474 65.7869 33.485C65.674 33.5226 65.5547 33.5376 65.436 33.5291C65.3173 33.5206 65.2014 33.4889 65.095 33.4356C64.9885 33.3823 64.8936 33.3086 64.8157 33.2187C64.7377 33.1288 64.6782 33.0244 64.6406 32.9114C64.603 32.7985 64.588 32.6793 64.5965 32.5606C64.605 32.4419 64.6367 32.326 64.69 32.2195ZM52.8125 40.7813H53.7187C53.9591 40.7813 54.1896 40.6858 54.3595 40.5159C54.5295 40.3459 54.625 40.1154 54.625 39.8751C54.625 39.6347 54.5295 39.4042 54.3595 39.2343C54.1896 39.0643 53.9591 38.9688 53.7187 38.9688H52.8125C52.5721 38.9688 52.3416 39.0643 52.1716 39.2343C52.0017 39.4042 51.9062 39.6347 51.9062 39.8751C51.9062 40.1154 52.0017 40.3459 52.1716 40.5159C52.3416 40.6858 52.5721 40.7813 52.8125 40.7813ZM61.875 32.6251C62.1153 32.6251 62.3458 32.5296 62.5158 32.3596C62.6857 32.1897 62.7812 31.9592 62.7812 31.7188V30.8126C62.7812 30.5722 62.6857 30.3417 62.5158 30.1718C62.3458 30.0018 62.1153 29.9063 61.875 29.9063C61.6346 29.9063 61.4041 30.0018 61.2341 30.1718C61.0642 30.3417 60.9687 30.5722 60.9687 30.8126V31.7188C60.9687 31.9592 61.0642 32.1897 61.2341 32.3596C61.4041 32.5296 61.6346 32.6251 61.875 32.6251ZM54.2194 42.6901L52.4069 43.5964C52.1919 43.7039 52.0285 43.8925 51.9526 44.1205C51.8766 44.3486 51.8944 44.5975 52.0019 44.8124C52.1095 45.0274 52.298 45.1908 52.5261 45.2668C52.7541 45.3427 53.003 45.325 53.218 45.2174L55.0305 44.3112C55.1369 44.2579 55.2318 44.1842 55.3098 44.0943C55.3878 44.0043 55.4472 43.8999 55.4848 43.787C55.5225 43.6741 55.5374 43.5549 55.529 43.4361C55.5205 43.3174 55.4887 43.2015 55.4355 43.0951C55.3822 42.9887 55.3085 42.8937 55.2186 42.8158C55.1287 42.7378 55.0242 42.6784 54.9113 42.6407C54.7984 42.6031 54.6792 42.5881 54.5605 42.5966C54.4417 42.6051 54.3258 42.6369 54.2194 42.6901ZM69.586 44.4913L75.2886 42.0127C75.6227 41.8645 75.9042 41.6189 76.0961 41.3079C76.2881 40.9969 76.3816 40.6352 76.3643 40.2701C76.3471 39.9051 76.2198 39.5538 75.9994 39.2623C75.7789 38.9709 75.4754 38.7528 75.1289 38.6369L56.9948 32.7157C56.6775 32.6118 56.3376 32.5979 56.0129 32.6755C55.6881 32.7531 55.3912 32.9192 55.1552 33.1553C54.9191 33.3914 54.753 33.6883 54.6754 34.013C54.5978 34.3377 54.6117 34.6776 54.7156 34.9949L60.6368 53.129C60.7484 53.4789 60.9648 53.7862 61.2568 54.009C61.5488 54.2319 61.9022 54.3597 62.2692 54.3751H62.3575C62.7095 54.3763 63.0541 54.274 63.3484 54.0808C63.6427 53.8876 63.8737 53.6122 64.0126 53.2887L66.4912 47.5861L72.75 53.8438C72.9183 54.0121 73.1181 54.1457 73.338 54.2368C73.558 54.3279 73.7937 54.3748 74.0317 54.3748C74.2698 54.3748 74.5055 54.3279 74.7254 54.2368C74.9454 54.1457 75.1452 54.0121 75.3135 53.8438L75.8437 53.3136C76.012 53.1453 76.1456 52.9455 76.2367 52.7256C76.3278 52.5056 76.3747 52.2699 76.3747 52.0319C76.3747 51.7938 76.3278 51.5581 76.2367 51.3381C76.1456 51.1182 76.012 50.9184 75.8437 50.7501L69.586 44.4913Z" fill="black"/>
<path d="M15.8608 28V19.2727H19.2017C19.8324 19.2727 20.3565 19.3722 20.7741 19.571C21.1946 19.767 21.5085 20.0355 21.7159 20.3764C21.9261 20.7173 22.0312 21.1037 22.0312 21.5355C22.0312 21.8906 21.9631 22.1946 21.8267 22.4474C21.6903 22.6974 21.5071 22.9006 21.277 23.0568C21.0469 23.2131 20.7898 23.3253 20.5057 23.3935V23.4787C20.8153 23.4957 21.1122 23.5909 21.3963 23.7642C21.6832 23.9347 21.9176 24.1761 22.0994 24.4886C22.2813 24.8011 22.3722 25.179 22.3722 25.6222C22.3722 26.0739 22.2628 26.4801 22.044 26.8409C21.8253 27.1989 21.4957 27.4815 21.0554 27.6889C20.6151 27.8963 20.0611 28 19.3935 28H15.8608ZM17.4418 26.679H19.142C19.7159 26.679 20.1293 26.5696 20.3821 26.3509C20.6378 26.1293 20.7656 25.8452 20.7656 25.4986C20.7656 25.2401 20.7017 25.0071 20.5739 24.7997C20.446 24.5895 20.2642 24.4247 20.0284 24.3054C19.7926 24.1832 19.5114 24.1222 19.1847 24.1222H17.4418V26.679ZM17.4418 22.9844H19.0057C19.2784 22.9844 19.5241 22.9347 19.7429 22.8352C19.9616 22.733 20.1335 22.5895 20.2585 22.4048C20.3864 22.2173 20.4503 21.9957 20.4503 21.7401C20.4503 21.402 20.331 21.1236 20.0923 20.9048C19.8565 20.6861 19.5057 20.5767 19.0398 20.5767H17.4418V22.9844ZM26.5344 28.1278C25.8952 28.1278 25.3413 27.9872 24.8725 27.706C24.4038 27.4247 24.0401 27.0312 23.7816 26.5256C23.5259 26.0199 23.3981 25.429 23.3981 24.7528C23.3981 24.0767 23.5259 23.4844 23.7816 22.9759C24.0401 22.4673 24.4038 22.0724 24.8725 21.7912C25.3413 21.5099 25.8952 21.3693 26.5344 21.3693C27.1737 21.3693 27.7276 21.5099 28.1964 21.7912C28.6651 22.0724 29.0273 22.4673 29.283 22.9759C29.5415 23.4844 29.6708 24.0767 29.6708 24.7528C29.6708 25.429 29.5415 26.0199 29.283 26.5256C29.0273 27.0312 28.6651 27.4247 28.1964 27.706C27.7276 27.9872 27.1737 28.1278 26.5344 28.1278ZM26.543 26.892C26.8896 26.892 27.1793 26.7969 27.4123 26.6065C27.6452 26.4134 27.8185 26.1548 27.9322 25.831C28.0487 25.5071 28.1069 25.1463 28.1069 24.7486C28.1069 24.348 28.0487 23.9858 27.9322 23.6619C27.8185 23.3352 27.6452 23.0753 27.4123 22.8821C27.1793 22.6889 26.8896 22.5923 26.543 22.5923C26.1879 22.5923 25.8924 22.6889 25.6566 22.8821C25.4237 23.0753 25.2489 23.3352 25.1325 23.6619C25.0188 23.9858 24.962 24.348 24.962 24.7486C24.962 25.1463 25.0188 25.5071 25.1325 25.831C25.2489 26.1548 25.4237 26.4134 25.6566 26.6065C25.8924 26.7969 26.1879 26.892 26.543 26.892ZM33.8352 28.1278C33.196 28.1278 32.642 27.9872 32.1733 27.706C31.7045 27.4247 31.3409 27.0312 31.0824 26.5256C30.8267 26.0199 30.6989 25.429 30.6989 24.7528C30.6989 24.0767 30.8267 23.4844 31.0824 22.9759C31.3409 22.4673 31.7045 22.0724 32.1733 21.7912C32.642 21.5099 33.196 21.3693 33.8352 21.3693C34.4744 21.3693 35.0284 21.5099 35.4972 21.7912C35.9659 22.0724 36.3281 22.4673 36.5838 22.9759C36.8423 23.4844 36.9716 24.0767 36.9716 24.7528C36.9716 25.429 36.8423 26.0199 36.5838 26.5256C36.3281 27.0312 35.9659 27.4247 35.4972 27.706C35.0284 27.9872 34.4744 28.1278 33.8352 28.1278ZM33.8438 26.892C34.1903 26.892 34.4801 26.7969 34.7131 26.6065C34.946 26.4134 35.1193 26.1548 35.233 25.831C35.3494 25.5071 35.4077 25.1463 35.4077 24.7486C35.4077 24.348 35.3494 23.9858 35.233 23.6619C35.1193 23.3352 34.946 23.0753 34.7131 22.8821C34.4801 22.6889 34.1903 22.5923 33.8438 22.5923C33.4886 22.5923 33.1932 22.6889 32.9574 22.8821C32.7244 23.0753 32.5497 23.3352 32.4332 23.6619C32.3196 23.9858 32.2628 24.348 32.2628 24.7486C32.2628 25.1463 32.3196 25.5071 32.4332 25.831C32.5497 26.1548 32.7244 26.4134 32.9574 26.6065C33.1932 26.7969 33.4886 26.892 33.8438 26.892ZM39.6871 25.946L39.6829 24.0838H39.93L42.2823 21.4545H44.0849L41.1914 24.6761H40.8718L39.6871 25.946ZM38.2809 28V19.2727H39.8235V28H38.2809ZM42.3888 28L40.2582 25.0213L41.2979 23.9347L44.234 28H42.3888ZM55.3295 19.2727V28H53.9233L49.8111 22.0554H49.7386V28H48.1577V19.2727H49.5724L53.6804 25.2216H53.7571V19.2727H55.3295ZM59.8391 28.1278C59.1999 28.1278 58.646 27.9872 58.1772 27.706C57.7085 27.4247 57.3448 27.0312 57.0863 26.5256C56.8306 26.0199 56.7028 25.429 56.7028 24.7528C56.7028 24.0767 56.8306 23.4844 57.0863 22.9759C57.3448 22.4673 57.7085 22.0724 58.1772 21.7912C58.646 21.5099 59.1999 21.3693 59.8391 21.3693C60.4783 21.3693 61.0323 21.5099 61.5011 21.7912C61.9698 22.0724 62.332 22.4673 62.5877 22.9759C62.8462 23.4844 62.9755 24.0767 62.9755 24.7528C62.9755 25.429 62.8462 26.0199 62.5877 26.5256C62.332 27.0312 61.9698 27.4247 61.5011 27.706C61.0323 27.9872 60.4783 28.1278 59.8391 28.1278ZM59.8477 26.892C60.1942 26.892 60.484 26.7969 60.717 26.6065C60.9499 26.4134 61.1232 26.1548 61.2369 25.831C61.3533 25.5071 61.4116 25.1463 61.4116 24.7486C61.4116 24.348 61.3533 23.9858 61.2369 23.6619C61.1232 23.3352 60.9499 23.0753 60.717 22.8821C60.484 22.6889 60.1942 22.5923 59.8477 22.5923C59.4925 22.5923 59.1971 22.6889 58.9613 22.8821C58.7283 23.0753 58.5536 23.3352 58.4371 23.6619C58.3235 23.9858 58.2667 24.348 58.2667 24.7486C58.2667 25.1463 58.3235 25.5071 58.4371 25.831C58.5536 26.1548 58.7283 26.4134 58.9613 26.6065C59.1971 26.7969 59.4925 26.892 59.8477 26.892ZM65.4482 28L63.5987 21.4545H65.1712L66.3217 26.0568H66.3814L67.5575 21.4545H69.1129L70.2891 26.0312H70.353L71.4865 21.4545H73.0632L71.2095 28H69.603L68.3757 23.5767H68.2862L67.0589 28H65.4482Z" fill="black"/>
</svg>
