<svg width="76" height="76" viewBox="0 0 76 76" fill="none" xmlns="http://www.w3.org/2000/svg">
<path d="M9.49999 12.6665H53.8333V25.3332H63.3333L72.8333 37.9998V53.8332H66.5C66.5 56.3527 65.4991 58.7691 63.7175 60.5507C61.9359 62.3323 59.5195 63.3332 57 63.3332C54.4804 63.3332 52.0641 62.3323 50.2825 60.5507C48.5009 58.7691 47.5 56.3527 47.5 53.8332H28.5C28.5 56.3527 27.4991 58.7691 25.7175 60.5507C23.9359 62.3323 21.5195 63.3332 19 63.3332C16.4804 63.3332 14.0641 62.3323 12.2825 60.5507C10.5009 58.7691 9.49999 56.3527 9.49999 53.8332H3.16666V18.9998C3.16666 17.3201 3.83392 15.7092 5.02165 14.5215C6.20938 13.3338 7.82029 12.6665 9.49999 12.6665ZM53.8333 30.0832V37.9998H67.9883L61.75 30.0832H53.8333ZM19 49.0832C17.7402 49.0832 16.532 49.5836 15.6412 50.4744C14.7504 51.3652 14.25 52.5734 14.25 53.8332C14.25 55.0929 14.7504 56.3011 15.6412 57.1919C16.532 58.0827 17.7402 58.5832 19 58.5832C20.2598 58.5832 21.4679 58.0827 22.3587 57.1919C23.2495 56.3011 23.75 55.0929 23.75 53.8332C23.75 52.5734 23.2495 51.3652 22.3587 50.4744C21.4679 49.5836 20.2598 49.0832 19 49.0832ZM57 49.0832C55.7402 49.0832 54.532 49.5836 53.6412 50.4744C52.7504 51.3652 52.25 52.5734 52.25 53.8332C52.25 55.0929 52.7504 56.3011 53.6412 57.1919C54.532 58.0827 55.7402 58.5832 57 58.5832C58.2598 58.5832 59.4679 58.0827 60.3587 57.1919C61.2495 56.3011 61.75 55.0929 61.75 53.8332C61.75 52.5734 61.2495 51.3652 60.3587 50.4744C59.4679 49.5836 58.2598 49.0832 57 49.0832ZM25.3333 44.3332L44.3333 25.3332L39.8683 20.8365L25.3333 35.3715L18.715 28.7532L14.25 33.2498L25.3333 44.3332Z" fill="black"/>
</svg>
